# xmcd CD database file
#
# Track frame offsets:
#	150
#	34450
#	59453
#	97607
#	121675
#	150499
#	179484
#	230990
#	257795
#
# Disc length: 3951 seconds
#
# Revision: 7
# Processed by: cddbd v1.5.2PL0 Copyright (c) Steve Scherf et al.
# Submitted via: CDex 1.70beta2
#
DISCID=730f6d09
DTITLE=Pat Metheny, Chris Potter, Ben Williams, Antonio Sanchez - Unity Band  (2012)
DYEAR=2012
DGENRE=Jazz
TTITLE0=New Year
TTITLE1=Roofdogs
TTITLE2=Come and See
TTITLE3=This Belongs to You
TTITLE4=Leaving Town
TTITLE5=Interval Waltz
TTITLE6=Signals (Orchestrion Sketch)
TTITLE7=Then and Now
TTITLE8=Breakdealer
EXTD=YEAR: 2012
EXTT0=
EXTT1=
EXTT2=
EXTT3=
EXTT4=
EXTT5=
EXTT6=
EXTT7=
EXTT8=
PLAYORDER=
